<svg xmlns="http://www.w3.org/2000/svg" x="0px" y="0px"
width="50" height="50"
viewBox="0 0 226 226"
style=" fill:#000000;"><g fill="none" fill-rule="nonzero" stroke="none" stroke-width="1" stroke-linecap="butt" stroke-linejoin="miter" stroke-miterlimit="10" stroke-dasharray="" stroke-dashoffset="0" font-family="none" font-weight="none" font-size="none" text-anchor="none" style="mix-blend-mode: normal"><path d="M0,226v-226h226v226z" fill="none"></path><g><path d="M94.16667,169.5h75.33333l28.25,28.25v-103.58333c0,-10.40071 -8.43263,-18.83333 -18.83333,-18.83333h-84.75c-10.40071,0 -18.83333,8.43263 -18.83333,18.83333v56.5c0,10.40071 8.43263,18.83333 18.83333,18.83333" fill="#1565c0"></path><path d="M136.54167,122.41667h-80.04167l-28.25,28.25v-103.58333c0,-10.40071 8.43263,-18.83333 18.83333,-18.83333h89.45833c10.40071,0 18.83333,8.43263 18.83333,18.83333v56.5c0,10.40071 -8.43263,18.83333 -18.83333,18.83333" fill="#2196f3"></path></g></g></svg>
